<?xml version="1.0" encoding="UTF-8"?>
<svg id="Layer_1" data-name="Layer 1" xmlns="http://www.w3.org/2000/svg" viewBox="0 0 201.55 74.53">
  <defs>
    <style>
      .cls-1 {
        fill: #eeeeef;
      }
    </style>
  </defs>
  <path class="cls-1" d="M73.79,39.76c-.11-.46-.13-.88-.07-1.25.05-.28.16-.49.33-.65.16-.15.33-.22.55-.22s.29.08.34.16c.09.15.12.35.07.62-.08.44-.22.89-.42,1.33-.13.28-.27.56-.44.85-.18-.28-.31-.56-.37-.83M73.13,35.45c-.54.23-1.04.56-1.49.96-.45.4-.83.89-1.15,1.45-.32.56-.54,1.16-.65,1.78-.2,1.13-.14,2.13.17,2.96.27.72.74,1.48,1.39,2.26l-4.54,7.16-.38.54c-1.51,2.22-2.83,4.07-3.9,5.5-1.08,1.42-2.02,2.57-2.8,3.41-.76.82-1.41,1.39-1.91,1.7-.57.36-.93.43-1.13.43-.22,0-.42-.05-.61-.14-.13-.06-.26-.26-.37-.55-.13-.38-.19-.98-.19-1.8.01-.85.15-2.02.41-3.5.36-2.07.77-4.1,1.22-6.02.46-1.96.89-3.73,1.29-5.27.41-1.56.76-2.87,1.05-3.91.3-1.06.47-1.71.52-2,.12-.69.08-1.16-.14-1.49-.24-.36-.69-.53-1.39-.53-.14,0-.36.03-.68.08-.31.06-.65.15-.99.27-.35.13-.68.29-1.01.48-.37.21-.67.5-.91.85-.25.39-.53.99-.86,1.85-.31.81-.68,1.75-1.12,2.83-.43,1.06-.96,2.21-1.57,3.43-.6,1.2-1.31,2.43-2.11,3.63l-.71,1.1,1.99,1.74.42-.65c-.03.17-.06.35-.09.52l-.35,1.96c-.39,2.22-.61,4.1-.65,5.62-.04,1.54.11,2.81.43,3.77.34,1.01.88,1.75,1.61,2.21.71.44,1.61.66,2.67.66s2.15-.45,3.31-1.33c1.1-.84,2.25-1.96,3.43-3.32,1.17-1.35,2.37-2.91,3.57-4.63,1.11-1.59,2.22-3.19,3.35-4.83l.04.04,1-1.56h-.02s3.97-6.35,3.97-6.35c.44.46.95.93,1.51,1.39.73.6,1.48,1.21,2.24,1.85.74.62,1.49,1.28,2.21,1.97.7.67,1.31,1.39,1.82,2.15.5.74.87,1.54,1.11,2.38.23.81.26,1.71.1,2.66-.18,1.03-.49,1.99-.93,2.85-.43.86-.97,1.61-1.62,2.23-.63.62-1.36,1.11-2.16,1.45-.79.34-1.65.52-2.54.52-1.75,0-3.06-.43-3.88-1.28-.82-.84-1.09-1.94-.84-3.38.14-.8.43-1.56.87-2.26.44-.71.97-1.32,1.59-1.82.61-.51,1.3-.91,2.04-1.2.72-.29,1.45-.43,2.15-.43h.39l.33-1.87-.43-.1c-1.64-.39-3.2-.27-4.71.31-.91.35-1.76.84-2.54,1.45-.78.62-1.44,1.37-1.99,2.24-.55.87-.91,1.83-1.09,2.84-.18,1.02-.15,2.03.09,2.98.24.96.69,1.84,1.32,2.59.64.76,1.47,1.37,2.48,1.81,1,.44,2.19.67,3.54.67,1.86,0,3.59-.36,5.17-1.08,1.57-.71,2.96-1.68,4.15-2.88,1.18-1.19,2.17-2.57,2.95-4.1.77-1.54,1.31-3.15,1.6-4.82.24-1.34.17-2.57-.21-3.65-.37-1.06-.93-2.02-1.68-2.85-.74-.82-1.61-1.57-2.6-2.23-.97-.65-1.97-1.26-2.97-1.82-.99-.55-1.94-1.08-2.86-1.6-.75-.42-1.41-.86-1.95-1.31.08-.16.16-.34.26-.53.17-.34.34-.71.53-1.11.18-.41.35-.81.49-1.22.15-.42.26-.82.33-1.21.16-.89.01-1.65-.42-2.27-.46-.64-1.23-.97-2.29-.97-.57,0-1.13.12-1.68.36M57.53,29.06c-.76.64-1.22,1.44-1.39,2.36-.17.98.03,1.82.6,2.48.57.67,1.34,1.01,2.29,1.01s1.81-.32,2.56-.96c.74-.63,1.2-1.43,1.37-2.38.17-.95-.02-1.78-.57-2.46-.55-.69-1.33-1.04-2.31-1.04-.92,0-1.78.33-2.54.97M150.75,29.06c-.76.64-1.22,1.44-1.38,2.36-.18.98.03,1.81.59,2.49.57.67,1.34,1.01,2.29,1.01s1.81-.32,2.56-.96c.74-.63,1.21-1.43,1.37-2.38.17-.95-.03-1.78-.57-2.46-.55-.69-1.33-1.04-2.31-1.04-.93,0-1.78.33-2.54.97M180.71,32.82l1.29,2.23,9.39-4.5,7.81,4.48,1.92-2.11-8.96-7.54-11.45,7.43ZM129.08,55.9c-.72-.55-1.33-1.26-1.81-2.11-.48-.84-.82-1.84-.99-2.96-.18-1.13-.15-2.38.09-3.74.26-1.49.74-2.65,1.41-3.46.64-.77,1.28-1.14,1.95-1.14.46,0,.88.21,1.27.64.43.47.76,1.16,1.01,2.05.25.93.38,2.07.4,3.41.02,1.33-.12,2.86-.41,4.53-.13.76-.28,1.5-.44,2.22-.13.56-.28,1.11-.45,1.63-.73-.23-1.42-.59-2.03-1.06M182.68,47.95c.63-1.47,1.31-2.68,2.03-3.62.7-.92,1.43-1.59,2.14-2,.7-.4,1.32-.6,1.86-.6.59,0,1.04.21,1.37.64.33.44.43,1.08.28,1.9-.16.9-.6,1.81-1.3,2.72-.74.94-1.61,1.84-2.59,2.68-.99.84-2.05,1.62-3.14,2.31-.76.48-1.48.9-2.13,1.26.37-2.06.87-3.84,1.49-5.29M168.36,23.67l-.1.34c-.71,2.44-1.47,4.92-2.25,7.37-.74,2.35-1.48,4.68-2.21,7.02h-3.14l-1.12,3.13h3.31c-.71,2.43-1.36,4.85-1.96,7.21-.27,1.09-.53,2.17-.77,3.26l-.41.58c-1.5,2.2-2.81,4.04-3.9,5.5-1.08,1.42-2.02,2.57-2.8,3.41-.76.82-1.41,1.39-1.91,1.7-.79.49-1.31.5-1.75.29-.13-.06-.26-.26-.36-.56-.13-.38-.2-.98-.19-1.8,0-.84.15-2.02.41-3.5.36-2.07.78-4.1,1.22-6.02.45-1.96.89-3.73,1.29-5.27.41-1.56.76-2.87,1.05-3.91.3-1.06.47-1.72.52-2,.12-.69.08-1.16-.14-1.49-.24-.36-.69-.53-1.4-.53-.14,0-.36.03-.68.08-.31.06-.65.15-.99.27-.35.13-.69.29-1.01.48-.37.22-.67.5-.91.85-.25.39-.53.99-.86,1.85-.31.81-.68,1.75-1.13,2.83-.43,1.05-.95,2.2-1.57,3.43-.6,1.2-1.31,2.42-2.11,3.62l-.53.75c-.8,1.17-1.73,2.12-2.75,2.83-.75.51-1.54.93-2.35,1.24.18-.49.35-.98.49-1.48.24-.83.44-1.68.59-2.53.4-2.27.48-4.28.24-6-.24-1.72-.7-3.19-1.37-4.35-.68-1.18-1.53-2.08-2.52-2.68-1.85-1.12-3.87-1.16-5.77-.35-.86.37-1.68.92-2.41,1.64-.73.72-1.38,1.62-1.92,2.67-.55,1.06-.94,2.29-1.19,3.67-.29,1.68-.3,3.26-.02,4.7.28,1.44.78,2.73,1.48,3.84.71,1.11,1.59,2.06,2.63,2.81.9.64,1.88,1.12,2.93,1.41-.78,1.81-1.72,3.26-2.77,4.32-1.13,1.13-2.35,1.68-3.74,1.68-.99,0-1.78-.31-2.45-.95-.69-.66-1.22-1.56-1.58-2.68-.37-1.15-.58-2.49-.61-4-.04-1.51.09-3.1.37-4.72.47-2.65,1.13-4.9,1.97-6.67.84-1.78,1.69-3.23,2.53-4.3.96-1.24,1.98-2.22,3.04-2.91l.27-.18-.38-1.95h-.39c-.38,0-.91.15-1.64.45-.68.28-1.46.71-2.32,1.28-.85.56-1.76,1.28-2.7,2.15-.93.86-1.83,1.89-2.67,3.05-.84,1.16-1.6,2.49-2.28,3.96-.57,1.24-1.02,2.62-1.33,4.09-1.33,1.96-2.61,3.68-3.8,5.1-1.19,1.42-2.32,2.6-3.35,3.48-1.02.88-2,1.53-2.9,1.94-2.1.95-3.91.71-5.19-.13-.75-.49-1.36-1.18-1.79-2.06-.45-.9-.72-2-.82-3.27-.09-1.29,0-2.75.28-4.34.35-2.02.86-3.79,1.49-5.29.64-1.49,1.34-2.73,2.1-3.7.75-.96,1.51-1.68,2.27-2.15.72-.45,1.4-.68,2-.68.85,0,1.4.22,1.61.64.25.51.32,1.12.19,1.83-.11.63-.32,1.26-.62,1.89-.3.63-.63,1.17-.98,1.6l-.14.17.31,1.7.48-.11c.79-.18,1.53-.47,2.21-.86.67-.39,1.27-.83,1.8-1.32.53-.5.97-1.04,1.3-1.62.34-.58.56-1.16.66-1.72.1-.55.1-1.14,0-1.74-.11-.63-.37-1.21-.79-1.75-.42-.54-1.01-.98-1.76-1.33-.75-.34-1.71-.51-2.88-.51-1.51,0-3.09.44-4.72,1.31-1.6.86-3.13,2.08-4.55,3.61-1.42,1.53-2.69,3.4-3.78,5.55-1.1,2.15-1.89,4.57-2.35,7.19-.29,1.66-.35,3.28-.16,4.79.19,1.53.63,2.9,1.3,4.05.68,1.18,1.62,2.13,2.79,2.81,1.17.69,2.6,1.03,4.23,1.03,1.16,0,2.42-.28,3.75-.82,1.31-.54,2.72-1.41,4.2-2.58,1.47-1.16,3.02-2.68,4.64-4.51.81-.92,1.64-1.93,2.48-3.04.02.53.07,1.05.13,1.55.24,1.84.79,3.47,1.61,4.85.83,1.39,1.97,2.51,3.36,3.32,1.4.82,3.08,1.23,5,1.23,1.32,0,2.6-.23,3.81-.68,1.2-.44,2.34-1.07,3.38-1.86,1.04-.79,2.01-1.72,2.89-2.78.83-1,1.58-2.1,2.21-3.28,1.61-.31,3.18-.95,4.68-1.91,1.44-.91,2.7-2.13,3.78-3.61l.04.03.43-.65c-.03.18-.07.35-.1.52l-.34,1.96c-.39,2.21-.61,4.1-.65,5.62-.04,1.54.11,2.81.43,3.77.34,1.01.88,1.75,1.61,2.21.71.44,1.61.66,2.67.66s2.15-.45,3.31-1.33c1.1-.84,2.25-1.96,3.43-3.32,1.16-1.35,2.36-2.91,3.57-4.63.28-.4.55-.79.83-1.19-.18,1.37-.28,2.59-.27,3.65,0,1.53.18,2.81.53,3.8.37,1.04.93,1.81,1.67,2.3,1.45.96,3.58,1.07,5.96-.33,1.15-.67,2.38-1.65,3.68-2.9,1.28-1.24,2.64-2.77,4.05-4.55.08-.1.15-.19.23-.29.02.3.05.6.08.9.19,1.53.63,2.9,1.3,4.06.68,1.18,1.62,2.13,2.79,2.81,1.17.69,2.6,1.03,4.23,1.03,1.16,0,2.42-.28,3.77-.82,1.32-.54,2.74-1.41,4.2-2.58,1.45-1.16,3-2.68,4.62-4.51,1.61-1.82,3.31-4.05,5.06-6.62l.72-1.1-1.99-1.73-.78,1.2c-1.34,1.98-2.62,3.71-3.83,5.15-1.18,1.42-2.31,2.59-3.35,3.48-1.02.88-2,1.53-2.9,1.94-1.95.88-3.66.72-4.89.07-.68-.36-1.23-.86-1.69-1.54-.46-.68-.8-1.5-1.01-2.46-.2-.9-.29-1.91-.26-3.01,1.83-1.01,3.57-1.99,5.24-2.95,1.74-1,3.32-2.03,4.69-3.05,1.39-1.04,2.55-2.11,3.45-3.2.93-1.12,1.52-2.35,1.74-3.65.25-1.41-.04-2.6-.86-3.55-.81-.94-2.13-1.42-3.92-1.42-1.69,0-3.42.44-5.13,1.31-1.7.86-3.31,2.07-4.79,3.61-1.48,1.54-2.78,3.4-3.88,5.55-.93,1.83-1.65,3.86-2.12,6.03-.5.7-1.01,1.38-1.51,2.04-1.05,1.36-2.06,2.56-3.02,3.57-.95,1-1.84,1.81-2.65,2.4-1.25.91-2.14,1.05-2.66.51-.15-.16-.36-.52-.46-1.32-.09-.7-.09-1.66.02-2.84.11-1.2.32-2.72.64-4.52.13-.71.29-1.57.49-2.56.2-.99.43-2.07.7-3.25.27-1.18.56-2.43.86-3.75.27-1.2.57-2.42.87-3.66h6.72l1.07-3.13h-7.03c.33-1.4.66-2.79.98-4.14.37-1.54.72-2.96,1.06-4.26l.9-3.45c.26-.99.46-1.75.6-2.27l.16-.59h-4.63ZM22.58,52.36c.72-3.52,2.36-10.27,3.03-13.85,11.1,2.52,4.64,14.32-1.14,14.32-.65,0-1.29-.15-1.9-.48M32.17,37.21c13.89-.73,13.49,13.76,8.18,18.93-5.24,5.7-14.75,8.37-20.67,7,.3-.85.82-3.33,1.23-5.01.59.15,1.21.23,1.84.23,7.89,0,18.54-11.28,9.42-21.14M4.41,45.22c1.25-5.93,7.15-9.16,15.46-7.91-.63,3.75-2.33,9.75-2.9,13.44-2.53-.72-5.49-3.34-4.78-7.11-4.81,7.03,1.16,10.6,3.16,12.88-.29.91-1.02,2.62-1.55,4.02-4.33-.57-10.3-5.85-9.39-15.33M30.46,15.55c7.41-.8,10.94,2.71,11.21,5.62.02,6.94-9.68,10.06-13.93,10.75.23-4.31,1.74-12.82,2.73-16.37M25.96,2.67c-.99,1.21-1.25,5.92-2.6,6.07-4.21.71-10.58,3.88-13.18,6.49.17,1.07.17,1.93.61,3.23,3.41-.29,8.47-1.84,11.98-2.02-.78,2.97-1.74,12.15-2.68,14.97C8.92,29.46.93,37.55.21,44.99c-1.25,9.23,3.12,14.21,10.87,20.48.75.68.84,2.23-1.78,5.2-1.14,1.14-2.85,2.42-7.64,2.64,5.59,3.53,12.77-1.4,15.23-5.1,11.29,2.67,28.68-3.65,30.73-17.55,1.41-7.88-2.07-17.83-11.53-17.61,6.84-2.62,9.53-5.19,9.53-11.8-.33-7.75-9.14-11.06-13.68-11.92.88-3.16,3.67-6.81,6.27-8.26-1.16-.73-2.8-1.07-4.53-1.07-2.94,0-6.15.98-7.73,2.67"/>
</svg>